<svg width="128" height="128" viewBox="0 0 128 128" fill="none" xmlns="http://www.w3.org/2000/svg">
<path fill-rule="evenodd" clip-rule="evenodd" d="M70.6649 23.2013C69.4245 23.462 67.733 24.2634 66.6211 25.117C64.8168 26.5021 63.4825 28.8368 63.1424 31.2036C62.8759 33.0579 63.2417 35.0002 64.1922 36.7805C64.564 37.4767 65.1444 38.2037 65.9714 39.0089C66.8969 39.9099 67.48 40.336 68.3427 40.7414C68.9718 41.037 69.8957 41.3796 70.3956 41.5026C71.5628 41.7898 73.969 41.7898 75.1361 41.5026C75.6361 41.3796 76.5599 41.037 77.1891 40.7414C78.0517 40.336 78.6348 39.9099 79.5604 39.0089C81.3832 37.2343 82.2619 35.4255 82.469 33.0221C82.5837 31.6912 82.2632 29.9044 81.6818 28.6318C81.1666 27.504 80.0943 26.0886 79.1357 25.2705C78.1118 24.397 76.1952 23.4754 74.8249 23.1979C73.5158 22.9329 71.9358 22.9341 70.6649 23.2013ZM56.0193 41.1613C53.5117 41.4659 50.5809 42.3998 48.5908 43.5289C47.0525 44.4016 45.1824 45.8464 44.0976 47.0003C43.0345 48.131 41.546 50.2091 40.8684 51.5086C38.669 55.7258 37.3342 62.1976 38.1817 64.536C38.7788 66.184 40.3382 67.5173 42.0771 67.8668C42.7679 68.0055 43.0951 67.9943 43.8899 67.8045C45.468 67.4276 46.7338 66.4129 47.535 64.8825C47.7509 64.47 48.1236 63.2486 48.3632 62.1683C48.6029 61.0881 49.0398 59.5074 49.3342 58.6556C50.8344 54.3159 53.0108 51.9298 56.1034 51.234L56.9302 51.0478L56.8285 52.4771C56.5826 55.9284 56.0248 59.8999 55.4373 62.3808C55.0282 64.1087 54.2992 66.4028 53.6757 67.9241C51.6561 72.852 48.635 76.074 45.2289 76.9328C44.0511 77.2297 41.7861 77.2249 40.7255 76.9232C37.809 76.0935 35.4057 73.8503 33.8166 70.4748C33.1912 69.1466 32.3379 68.2701 31.1494 67.7352C30.4301 67.4115 30.0741 67.3478 28.9915 67.3499C27.9403 67.352 27.5695 67.4162 27.0317 67.6895C25.4555 68.4899 24.2382 70.1401 24.0293 71.7592C23.971 72.2111 24.0021 72.8945 24.1014 73.3432C24.1977 73.7772 24.6076 74.8039 25.0127 75.6247C26.7546 79.1544 29.425 82.2243 32.5278 84.2639C33.9346 85.1885 36.4285 86.2828 38.0153 86.6715C41.607 87.5514 44.9063 87.5507 48.362 86.6692C49.8978 86.2775 52.4311 85.1822 53.6526 84.3819C55.0051 83.4958 56.8244 81.919 57.8414 80.7517C59.1525 79.2468 60.3596 77.4901 61.3055 75.7102C61.7236 74.9235 62.2647 74.096 62.5083 73.871C63.9658 72.5248 65.9316 73.4672 67.243 76.1407C69.8989 81.5555 71.3507 91.564 71.2135 103.512C71.166 107.641 71.1761 107.818 71.494 108.484C71.9607 109.461 72.9605 110.45 73.9644 110.927C74.7214 111.287 74.9994 111.336 76.2739 111.336C77.5496 111.336 77.8262 111.287 78.5863 110.926C79.5806 110.453 80.448 109.592 80.8788 108.65C81.3815 107.549 81.5018 105.427 81.4124 99.2303C81.3249 93.1477 81.1111 90.1219 80.4595 85.7405C79.6252 80.1304 78.3563 75.5649 76.6476 72.0255C76.2718 71.2473 75.8238 70.1739 75.6519 69.6402C75.2551 68.408 75.1199 66.4607 75.3376 65.1122C75.5093 64.0486 76.0087 62.3402 76.2555 61.9715C76.3679 61.8035 76.5565 61.8226 77.3663 62.0834C78.8705 62.5678 80.4418 62.8259 82.5274 62.9309C86.7705 63.1442 90.7195 62.2174 93.6493 60.3204C96.7681 58.3012 99 55.0722 99 52.5797C99 51.1516 98.5446 50.1298 97.4142 49.0226C96.7126 48.3352 96.2581 48.0303 95.5682 47.7842C93.7092 47.1213 91.5051 47.62 90.0972 49.0224C89.7256 49.3924 89.2687 50.0525 89.0817 50.4892C88.8007 51.1451 88.6058 51.3616 87.9605 51.7338C85.8719 52.9383 83.5672 53.0805 80.6971 52.1818C79.4057 51.7775 77.5382 50.8695 76.1989 49.9946C75.6111 49.6106 74.451 48.7059 73.6211 47.9843C71.1804 45.8619 69.642 44.3637 68.3427 43.5289C66.0653 42.0659 64.1376 41.6007 61.8023 41.2048C60.407 40.9683 57.7725 40.9485 56.0193 41.1613Z" fill="#FBBF24"/>
</svg>
