<svg id="Capa_1" enable-background="new 0 0 511.337 511.337" height="512" viewBox="0 0 511.337 511.337" width="512" xmlns="http://www.w3.org/2000/svg"><g id="XMLID_596_"><path id="XMLID_616_" d="m191.235 176.167h97.631v190.241h-97.631z" transform="matrix(.707 -.707 .707 .707 -121.52 249.199)"/><path id="XMLID_617_" d="m117.058 259.758-14.619 14.619c-11.86 11.86-25.534 21.569-40.642 28.857-15.716 7.581-29.94 17.68-42.278 30.019l-8.79 8.79c-14.306 14.305-14.306 37.582 0 51.888l106.679 106.678c7.152 7.153 16.548 10.729 25.943 10.729s18.791-3.576 25.943-10.729l8.791-8.791c12.338-12.337 22.438-26.562 30.019-42.278 7.287-15.107 16.996-28.781 28.856-40.642l14.619-14.619z"/><path id="XMLID_618_" d="m360.56 42.298c-26.512-4.627-53.975 3.888-73.213 23.127-6.624 6.624-12.046 14.26-16.115 22.697-10.789 22.365-25.159 42.61-42.711 60.174l134.522 134.522c17.562-17.552 37.807-31.922 60.174-42.711 8.438-4.07 16.074-9.492 22.696-16.115 19.238-19.238 27.754-46.701 23.127-73.213z"/><path id="XMLID_620_" d="m427.459 6.557h58.407v96.236h-58.407z" transform="matrix(.707 -.707 .707 .707 95.094 338.925)"/></g></svg>